<mxfile host="app.diagrams.net" modified="2024-04-03T19:10:52.803Z" agent="Mozilla/5.0 (Windows NT 10.0; Win64; x64) AppleWebKit/537.36 (KHTML, like Gecko) Chrome/120.0.0.0 YaBrowser/24.1.0.0 Safari/537.36" etag="4RRgsq8zrF7--wxMuqTG" version="24.2.2" type="device">
  <diagram name="Page-1" id="X6UOvbVDv69ljmcpV5w1">
    <mxGraphModel dx="1002" dy="575" grid="1" gridSize="10" guides="1" tooltips="1" connect="1" arrows="1" fold="1" page="1" pageScale="1" pageWidth="850" pageHeight="1100" math="0" shadow="0">
      <root>
        <mxCell id="0" />
        <mxCell id="1" parent="0" />
        <mxCell id="iXqDMxa8D9A1gev7aIZq-1" value="&lt;span style=&quot;font-size:12.0pt;mso-bidi-font-size:&lt;br/&gt;14.0pt;font-family:&amp;quot;Times New Roman&amp;quot;,serif;mso-fareast-font-family:Arial;&lt;br/&gt;mso-bidi-font-family:Arial;mso-ansi-language:#0019;mso-fareast-language:RU;&lt;br/&gt;mso-bidi-language:AR-SA&quot; lang=&quot;ru&quot;&gt;АРМ администратора ресторана&lt;/span&gt;" style="swimlane;html=1;childLayout=stackLayout;startSize=20;rounded=0;shadow=0;comic=0;labelBackgroundColor=none;strokeWidth=1;fontFamily=Verdana;fontSize=12;align=center;" vertex="1" parent="1">
          <mxGeometry x="40" y="20" width="600" height="700" as="geometry" />
        </mxCell>
        <mxCell id="iXqDMxa8D9A1gev7aIZq-2" value="Пользователь" style="swimlane;html=1;startSize=20;" vertex="1" parent="iXqDMxa8D9A1gev7aIZq-1">
          <mxGeometry y="20" width="250" height="680" as="geometry" />
        </mxCell>
        <mxCell id="iXqDMxa8D9A1gev7aIZq-3" value="Выполняет нужные действия на сервисе" style="rounded=1;whiteSpace=wrap;html=1;shadow=0;comic=0;labelBackgroundColor=none;strokeWidth=1;fontFamily=Verdana;fontSize=12;align=center;arcSize=50;" vertex="1" parent="iXqDMxa8D9A1gev7aIZq-2">
          <mxGeometry x="42.5" y="360" width="165" height="40" as="geometry" />
        </mxCell>
        <mxCell id="iXqDMxa8D9A1gev7aIZq-4" value="Заполняет данными" style="rounded=1;whiteSpace=wrap;html=1;shadow=0;comic=0;labelBackgroundColor=none;strokeWidth=1;fontFamily=Verdana;fontSize=12;align=center;arcSize=50;" vertex="1" parent="iXqDMxa8D9A1gev7aIZq-2">
          <mxGeometry x="75" y="110" width="100" height="30" as="geometry" />
        </mxCell>
        <mxCell id="iXqDMxa8D9A1gev7aIZq-5" value="Заполняет данными" style="rounded=1;whiteSpace=wrap;html=1;shadow=0;comic=0;labelBackgroundColor=none;strokeWidth=1;fontFamily=Verdana;fontSize=12;align=center;arcSize=50;" vertex="1" parent="iXqDMxa8D9A1gev7aIZq-2">
          <mxGeometry x="90" y="440" width="125" height="50" as="geometry" />
        </mxCell>
        <mxCell id="iXqDMxa8D9A1gev7aIZq-6" style="rounded=0;html=1;labelBackgroundColor=none;startArrow=none;startFill=0;startSize=5;endArrow=classicThin;endFill=1;endSize=5;jettySize=auto;orthogonalLoop=1;strokeWidth=1;fontFamily=Verdana;fontSize=12;entryX=0.5;entryY=0;entryDx=0;entryDy=0;" edge="1" parent="iXqDMxa8D9A1gev7aIZq-1" source="iXqDMxa8D9A1gev7aIZq-4" target="iXqDMxa8D9A1gev7aIZq-18">
          <mxGeometry relative="1" as="geometry">
            <Array as="points">
              <mxPoint x="125" y="190" />
              <mxPoint x="395" y="190" />
            </Array>
          </mxGeometry>
        </mxCell>
        <mxCell id="iXqDMxa8D9A1gev7aIZq-7" style="edgeStyle=orthogonalEdgeStyle;rounded=0;orthogonalLoop=1;jettySize=auto;html=1;exitX=0;exitY=0.5;exitDx=0;exitDy=0;entryX=1;entryY=0.5;entryDx=0;entryDy=0;" edge="1" parent="iXqDMxa8D9A1gev7aIZq-1" source="iXqDMxa8D9A1gev7aIZq-11" target="iXqDMxa8D9A1gev7aIZq-4">
          <mxGeometry relative="1" as="geometry" />
        </mxCell>
        <mxCell id="iXqDMxa8D9A1gev7aIZq-8" value="Веб-сервер" style="swimlane;html=1;startSize=20;" vertex="1" parent="iXqDMxa8D9A1gev7aIZq-1">
          <mxGeometry x="250" y="20" width="350" height="680" as="geometry" />
        </mxCell>
        <mxCell id="iXqDMxa8D9A1gev7aIZq-9" style="edgeStyle=orthogonalEdgeStyle;rounded=0;html=1;labelBackgroundColor=none;startArrow=none;startFill=0;startSize=5;endArrow=classicThin;endFill=1;endSize=5;jettySize=auto;orthogonalLoop=1;strokeWidth=1;fontFamily=Verdana;fontSize=12" edge="1" parent="iXqDMxa8D9A1gev7aIZq-8" source="iXqDMxa8D9A1gev7aIZq-10" target="iXqDMxa8D9A1gev7aIZq-11">
          <mxGeometry relative="1" as="geometry" />
        </mxCell>
        <mxCell id="iXqDMxa8D9A1gev7aIZq-10" value="" style="ellipse;whiteSpace=wrap;html=1;rounded=0;shadow=0;comic=0;labelBackgroundColor=none;strokeWidth=1;fillColor=#000000;fontFamily=Verdana;fontSize=12;align=center;" vertex="1" parent="iXqDMxa8D9A1gev7aIZq-8">
          <mxGeometry x="100" y="40" width="40" height="40" as="geometry" />
        </mxCell>
        <mxCell id="iXqDMxa8D9A1gev7aIZq-11" value="Отображает страницу авторизации" style="rounded=1;whiteSpace=wrap;html=1;shadow=0;comic=0;labelBackgroundColor=none;strokeWidth=1;fontFamily=Verdana;fontSize=12;align=center;arcSize=50;" vertex="1" parent="iXqDMxa8D9A1gev7aIZq-8">
          <mxGeometry x="50" y="110" width="140" height="30" as="geometry" />
        </mxCell>
        <mxCell id="iXqDMxa8D9A1gev7aIZq-12" value="Даёт доступ к возможностям пользователя" style="rounded=1;whiteSpace=wrap;html=1;shadow=0;comic=0;labelBackgroundColor=none;strokeWidth=1;fontFamily=Verdana;fontSize=12;align=center;arcSize=50;" vertex="1" parent="iXqDMxa8D9A1gev7aIZq-8">
          <mxGeometry y="320" width="125" height="50" as="geometry" />
        </mxCell>
        <mxCell id="iXqDMxa8D9A1gev7aIZq-13" style="edgeStyle=orthogonalEdgeStyle;rounded=0;orthogonalLoop=1;jettySize=auto;html=1;exitX=0;exitY=0.5;exitDx=0;exitDy=0;entryX=0.5;entryY=0;entryDx=0;entryDy=0;" edge="1" parent="iXqDMxa8D9A1gev7aIZq-8" source="iXqDMxa8D9A1gev7aIZq-18" target="iXqDMxa8D9A1gev7aIZq-12">
          <mxGeometry relative="1" as="geometry">
            <mxPoint x="35" y="290" as="targetPoint" />
            <Array as="points">
              <mxPoint x="60" y="220" />
              <mxPoint x="60" y="310" />
              <mxPoint x="63" y="310" />
            </Array>
          </mxGeometry>
        </mxCell>
        <mxCell id="iXqDMxa8D9A1gev7aIZq-14" value="ДА" style="edgeLabel;html=1;align=center;verticalAlign=middle;resizable=0;points=[];" vertex="1" connectable="0" parent="iXqDMxa8D9A1gev7aIZq-13">
          <mxGeometry x="-0.3078" relative="1" as="geometry">
            <mxPoint as="offset" />
          </mxGeometry>
        </mxCell>
        <mxCell id="iXqDMxa8D9A1gev7aIZq-15" value="" style="shape=mxgraph.bpmn.shape;html=1;verticalLabelPosition=bottom;labelBackgroundColor=#ffffff;verticalAlign=top;perimeter=ellipsePerimeter;outline=end;symbol=terminate;rounded=0;shadow=0;comic=0;strokeWidth=1;fontFamily=Verdana;fontSize=12;align=center;" vertex="1" parent="iXqDMxa8D9A1gev7aIZq-8">
          <mxGeometry x="100" y="610" width="40" height="40" as="geometry" />
        </mxCell>
        <mxCell id="iXqDMxa8D9A1gev7aIZq-16" style="edgeStyle=orthogonalEdgeStyle;rounded=0;orthogonalLoop=1;jettySize=auto;html=1;exitX=1;exitY=0.5;exitDx=0;exitDy=0;entryX=0.5;entryY=0;entryDx=0;entryDy=0;" edge="1" parent="iXqDMxa8D9A1gev7aIZq-8" source="iXqDMxa8D9A1gev7aIZq-18" target="iXqDMxa8D9A1gev7aIZq-19">
          <mxGeometry relative="1" as="geometry">
            <Array as="points">
              <mxPoint x="230" y="220" />
              <mxPoint x="230" y="320" />
            </Array>
          </mxGeometry>
        </mxCell>
        <mxCell id="iXqDMxa8D9A1gev7aIZq-17" value="НЕТ" style="edgeLabel;html=1;align=center;verticalAlign=middle;resizable=0;points=[];" vertex="1" connectable="0" parent="iXqDMxa8D9A1gev7aIZq-16">
          <mxGeometry x="-0.1789" relative="1" as="geometry">
            <mxPoint as="offset" />
          </mxGeometry>
        </mxCell>
        <mxCell id="iXqDMxa8D9A1gev7aIZq-18" value="Информация валидна?" style="rhombus;whiteSpace=wrap;html=1;fillColor=none;" vertex="1" parent="iXqDMxa8D9A1gev7aIZq-8">
          <mxGeometry x="80" y="190" width="130" height="60" as="geometry" />
        </mxCell>
        <mxCell id="iXqDMxa8D9A1gev7aIZq-19" value="Отображаеть сообщение о неправильном заполнении" style="rounded=1;whiteSpace=wrap;html=1;shadow=0;comic=0;labelBackgroundColor=none;strokeWidth=1;fontFamily=Verdana;fontSize=12;align=center;arcSize=50;" vertex="1" parent="iXqDMxa8D9A1gev7aIZq-8">
          <mxGeometry x="170" y="320" width="125" height="70" as="geometry" />
        </mxCell>
        <mxCell id="iXqDMxa8D9A1gev7aIZq-20" style="edgeStyle=orthogonalEdgeStyle;rounded=0;orthogonalLoop=1;jettySize=auto;html=1;exitX=1;exitY=0.5;exitDx=0;exitDy=0;entryX=1;entryY=1;entryDx=0;entryDy=0;" edge="1" parent="iXqDMxa8D9A1gev7aIZq-8" source="iXqDMxa8D9A1gev7aIZq-21" target="iXqDMxa8D9A1gev7aIZq-11">
          <mxGeometry relative="1" as="geometry">
            <Array as="points">
              <mxPoint x="300" y="460" />
              <mxPoint x="300" y="140" />
            </Array>
          </mxGeometry>
        </mxCell>
        <mxCell id="iXqDMxa8D9A1gev7aIZq-21" value="Попробовать &lt;br&gt;еще&amp;nbsp;или создать аккаунт" style="rhombus;whiteSpace=wrap;html=1;fillColor=none;" vertex="1" parent="iXqDMxa8D9A1gev7aIZq-8">
          <mxGeometry x="150" y="420" width="130" height="80" as="geometry" />
        </mxCell>
        <mxCell id="iXqDMxa8D9A1gev7aIZq-22" value="" style="edgeStyle=orthogonalEdgeStyle;rounded=0;orthogonalLoop=1;jettySize=auto;html=1;" edge="1" parent="iXqDMxa8D9A1gev7aIZq-8" source="iXqDMxa8D9A1gev7aIZq-21" target="iXqDMxa8D9A1gev7aIZq-23">
          <mxGeometry relative="1" as="geometry" />
        </mxCell>
        <mxCell id="iXqDMxa8D9A1gev7aIZq-23" value="Отображает форму регистрации" style="rounded=1;whiteSpace=wrap;html=1;shadow=0;comic=0;labelBackgroundColor=none;strokeWidth=1;fontFamily=Verdana;fontSize=12;align=center;arcSize=50;" vertex="1" parent="iXqDMxa8D9A1gev7aIZq-8">
          <mxGeometry y="435" width="125" height="50" as="geometry" />
        </mxCell>
        <mxCell id="iXqDMxa8D9A1gev7aIZq-24" style="edgeStyle=orthogonalEdgeStyle;rounded=0;orthogonalLoop=1;jettySize=auto;html=1;exitX=1;exitY=0.5;exitDx=0;exitDy=0;entryX=1;entryY=0.5;entryDx=0;entryDy=0;" edge="1" parent="iXqDMxa8D9A1gev7aIZq-8" source="iXqDMxa8D9A1gev7aIZq-25" target="iXqDMxa8D9A1gev7aIZq-11">
          <mxGeometry relative="1" as="geometry">
            <Array as="points">
              <mxPoint x="320" y="555" />
              <mxPoint x="320" y="120" />
              <mxPoint x="190" y="120" />
            </Array>
          </mxGeometry>
        </mxCell>
        <mxCell id="iXqDMxa8D9A1gev7aIZq-25" value="Сохраняет в базу данных" style="rounded=1;whiteSpace=wrap;html=1;shadow=0;comic=0;labelBackgroundColor=none;strokeWidth=1;fontFamily=Verdana;fontSize=12;align=center;arcSize=50;" vertex="1" parent="iXqDMxa8D9A1gev7aIZq-8">
          <mxGeometry x="57.5" y="530" width="125" height="50" as="geometry" />
        </mxCell>
        <mxCell id="iXqDMxa8D9A1gev7aIZq-26" style="edgeStyle=orthogonalEdgeStyle;rounded=0;orthogonalLoop=1;jettySize=auto;html=1;exitX=1;exitY=0.5;exitDx=0;exitDy=0;entryX=1;entryY=0;entryDx=0;entryDy=0;" edge="1" parent="iXqDMxa8D9A1gev7aIZq-8" source="iXqDMxa8D9A1gev7aIZq-11" target="iXqDMxa8D9A1gev7aIZq-11">
          <mxGeometry relative="1" as="geometry" />
        </mxCell>
        <mxCell id="iXqDMxa8D9A1gev7aIZq-27" style="edgeStyle=none;rounded=0;html=1;labelBackgroundColor=none;startArrow=none;startFill=0;startSize=5;endArrow=classicThin;endFill=1;endSize=5;jettySize=auto;orthogonalLoop=1;strokeWidth=1;fontFamily=Verdana;fontSize=12;exitX=0;exitY=0.5;exitDx=0;exitDy=0;" edge="1" parent="iXqDMxa8D9A1gev7aIZq-1" source="iXqDMxa8D9A1gev7aIZq-12" target="iXqDMxa8D9A1gev7aIZq-3">
          <mxGeometry relative="1" as="geometry">
            <mxPoint x="154.6428571428571" y="560" as="sourcePoint" />
            <Array as="points">
              <mxPoint x="125" y="365" />
            </Array>
          </mxGeometry>
        </mxCell>
        <mxCell id="iXqDMxa8D9A1gev7aIZq-28" style="edgeStyle=none;rounded=0;html=1;labelBackgroundColor=none;startArrow=none;startFill=0;startSize=5;endArrow=classicThin;endFill=1;endSize=5;jettySize=auto;orthogonalLoop=1;strokeWidth=1;fontFamily=Verdana;fontSize=12;exitX=0;exitY=0.5;exitDx=0;exitDy=0;" edge="1" parent="iXqDMxa8D9A1gev7aIZq-1" source="iXqDMxa8D9A1gev7aIZq-3" target="iXqDMxa8D9A1gev7aIZq-15">
          <mxGeometry relative="1" as="geometry">
            <mxPoint x="370" y="860" as="sourcePoint" />
            <Array as="points">
              <mxPoint x="20" y="400" />
              <mxPoint x="20" y="650" />
            </Array>
          </mxGeometry>
        </mxCell>
        <mxCell id="iXqDMxa8D9A1gev7aIZq-29" style="edgeStyle=orthogonalEdgeStyle;rounded=0;orthogonalLoop=1;jettySize=auto;html=1;exitX=0;exitY=0.5;exitDx=0;exitDy=0;entryX=1;entryY=0.5;entryDx=0;entryDy=0;" edge="1" parent="iXqDMxa8D9A1gev7aIZq-1" source="iXqDMxa8D9A1gev7aIZq-23" target="iXqDMxa8D9A1gev7aIZq-5">
          <mxGeometry relative="1" as="geometry" />
        </mxCell>
        <mxCell id="iXqDMxa8D9A1gev7aIZq-30" style="edgeStyle=orthogonalEdgeStyle;rounded=0;orthogonalLoop=1;jettySize=auto;html=1;exitX=0.5;exitY=1;exitDx=0;exitDy=0;entryX=0;entryY=0.5;entryDx=0;entryDy=0;" edge="1" parent="iXqDMxa8D9A1gev7aIZq-1" source="iXqDMxa8D9A1gev7aIZq-5" target="iXqDMxa8D9A1gev7aIZq-25">
          <mxGeometry relative="1" as="geometry" />
        </mxCell>
      </root>
    </mxGraphModel>
  </diagram>
</mxfile>
